<svg xmlns="http://www.w3.org/2000/svg" xmlns:xlink="http://www.w3.org/1999/xlink" width="206" zoomAndPan="magnify" viewBox="0 0 154.5 47.25" height="63" preserveAspectRatio="xMidYMid meet" version="1.0"><defs><clipPath id="994fb0e8c5"><path d="M 0.960938 23.332031 L 153.046875 23.332031 L 153.046875 46.511719 L 0.960938 46.511719 Z M 0.960938 23.332031 " clip-rule="nonzero"/></clipPath></defs><g clip-path="url(#994fb0e8c5)"><path fill="#33333b" d="M 2.441406 23.332031 L 152.058594 23.332031 C 152.449219 23.332031 152.828125 23.488281 153.105469 23.773438 C 153.382812 24.054688 153.539062 24.4375 153.539062 24.835938 L 153.539062 45.527344 C 153.539062 45.925781 153.382812 46.308594 153.105469 46.59375 C 152.828125 46.875 152.449219 47.03125 152.058594 47.03125 L 2.441406 47.03125 C 2.050781 47.03125 1.671875 46.875 1.394531 46.59375 C 1.117188 46.308594 0.960938 45.925781 0.960938 45.527344 L 0.960938 24.835938 C 0.960938 24.4375 1.117188 24.054688 1.394531 23.773438 C 1.671875 23.488281 2.050781 23.332031 2.441406 23.332031 " fill-opacity="1" fill-rule="nonzero"/></g></svg>