<svg xmlns="http://www.w3.org/2000/svg" xmlns:xlink="http://www.w3.org/1999/xlink" width="256" zoomAndPan="magnify" viewBox="0 0 192 191.999996" height="256" preserveAspectRatio="xMidYMid meet" version="1.0"><defs><filter x="0%" y="0%" width="100%" height="100%" id="c79710b50f"><feColorMatrix values="0 0 0 0 1 0 0 0 0 1 0 0 0 0 1 0 0 0 1 0" color-interpolation-filters="sRGB"/></filter><clipPath id="965d5581c5"><path d="M 11 5.933594 L 192 5.933594 L 192 175 L 11 175 Z M 11 5.933594 " clip-rule="nonzero"/></clipPath><mask id="7340a63bf7"><g filter="url(#c79710b50f)"><rect x="-19.2" width="230.4" fill="#000000" y="-19.2" height="230.399995" fill-opacity="0.498"/></g></mask><clipPath id="92b4cec437"><path d="M 3 0.933594 L 179 0.933594 L 179 167 L 3 167 Z M 3 0.933594 " clip-rule="nonzero"/></clipPath><clipPath id="4ca2d58f2f"><rect x="0" width="181" y="0" height="170"/></clipPath><clipPath id="737be074d9"><path d="M 0 79 L 113 79 L 113 185.933594 L 0 185.933594 Z M 0 79 " clip-rule="nonzero"/></clipPath><mask id="5d66c54331"><g filter="url(#c79710b50f)"><rect x="-19.2" width="230.4" fill="#000000" y="-19.2" height="230.399995" fill-opacity="0.498"/></g></mask><clipPath id="c51d082ee4"><path d="M 0 1 L 111 1 L 111 106.933594 L 0 106.933594 Z M 0 1 " clip-rule="nonzero"/></clipPath><clipPath id="9d2a631a2a"><rect x="0" width="113" y="0" height="107"/></clipPath></defs><g clip-path="url(#965d5581c5)"><g mask="url(#7340a63bf7)"><g transform="matrix(1, 0, 0, 1, 11, 5)"><g clip-path="url(#4ca2d58f2f)"><g clip-path="url(#92b4cec437)"><path fill="#0096c7" d="M 178.214844 2.144531 L 131.917969 166.046875 C 131.679688 166.789062 130.738281 167.011719 130.191406 166.492188 L 99.191406 137.105469 L 122.421875 54.96875 C 122.65625 54.222656 121.949219 53.554688 121.164062 53.777344 L 34.53125 75.800781 L 3.691406 46.5625 C 3.140625 46.039062 3.378906 45.148438 4.160156 44.925781 L 176.960938 0.957031 C 177.746094 0.808594 178.449219 1.476562 178.214844 2.144531 Z M 178.214844 2.144531 " fill-opacity="1" fill-rule="nonzero"/></g></g></g></g></g><g clip-path="url(#737be074d9)"><g mask="url(#5d66c54331)"><g transform="matrix(1, 0, 0, 1, 0, 79)"><g clip-path="url(#9d2a631a2a)"><g clip-path="url(#c51d082ee4)"><path fill="#0096c7" d="M 110.191406 63.101562 L 98.261719 105.507812 C 98.027344 106.253906 97.085938 106.476562 96.535156 105.957031 L 0.328125 14.816406 C -0.21875 14.296875 0.015625 13.40625 0.800781 13.183594 L 45.53125 1.796875 Z M 110.191406 63.101562 " fill-opacity="1" fill-rule="nonzero"/></g></g></g></g></g><path fill="#0096c7" d="M 133.417969 59.96875 L 110.1875 142.101562 L 45.527344 80.796875 L 132.160156 58.777344 C 132.945312 58.554688 133.652344 59.222656 133.417969 59.96875 Z M 133.417969 59.96875 " fill-opacity="1" fill-rule="nonzero"/></svg>